<svg xmlns="http://www.w3.org/2000/svg"  viewBox="0 0 40 40" width="16px" height="16px"><path fill="#8bb7f0" d="M6.5,37.5v-35H35c0.275,0,0.5,0.224,0.5,0.5v34c0,0.276-0.225,0.5-0.5,0.5H6.5z"/><path fill="#4e7ab5" d="M35,3v34H7V3H35 M35,2H6v36h29c0.552,0,1-0.448,1-1V3C36,2.448,35.552,2,35,2L35,2z"/><path fill="#4e7ab5" d="M9,38H5c-0.552,0-1-0.448-1-1V3c0-0.552,0.448-1,1-1h4V38z"/><path fill="#fff" d="M22 12A4 4 0 1 0 22 20 4 4 0 1 0 22 12zM28 27c0-3.314-2.686-6-6-6-3.314 0-6 2.686-6 6H28z"/></svg>